<svg width="44" height="40" viewBox="0 0 44 40" fill="none" xmlns="http://www.w3.org/2000/svg">
<path d="M10.9011 18.4795L6.41068 17.3701V23.1053L10.9011 24.2142V18.4795Z" fill="#1565C0"/>
<path d="M13.7328 0.0402527C12.7665 0.181548 10.7949 0.425194 9.82553 0.564491C13.6949 2.3519 17.7109 4.33202 20.1939 6.58275C18.5655 4.24415 16.6852 1.98193 13.7328 0.0402527Z" fill="#1565C0"/>
<path d="M18.6289 8.27979V38.6083C21.019 40.6623 23.2336 40.2544 25.3613 38.6083V8.27979C23.2451 9.40815 21.013 9.53097 18.6289 8.27979Z" fill="#1565C0"/>
<path d="M37.3296 1.09521C32.4046 2.29497 28.8814 4.4838 25.7415 6.94173C29.7784 4.76339 35.1579 3.33696 40.1488 2.51465C39.5237 2.10125 37.9547 1.50762 37.3296 1.09521Z" fill="#1565C0"/>
<path d="M30.5337 0.0402507C27.5813 1.98193 25.7005 4.24415 24.0687 6.58275C26.5546 4.33202 30.1711 1.73479 34.5363 0.0402507C33.574 -0.0995464 31.4971 0.181046 30.5337 0.0402507Z" fill="#1565C0"/>
<path d="M3.82346 2.74881C8.8148 3.57112 14.4856 4.76339 18.5246 6.94173C15.3856 4.4838 11.8615 2.29497 6.9365 1.09521C6.3079 1.50762 4.44956 2.33491 3.82346 2.74881Z" fill="#1565C0"/>
<path d="M0 34.6994C6.13529 35.3505 11.8326 36.7924 17.3078 38.6317V8.27981C12.0117 6.43848 6.3548 5.00107 0 4.34702V34.6994ZM12.1299 28.2813C12.0596 28.5659 11.8056 28.7561 11.5252 28.7561C11.4754 28.7561 11.4255 28.7501 11.3751 28.7381L5.6379 27.3202C5.30365 27.2378 5.0996 26.8998 5.18192 26.5648C5.26424 26.2302 5.60448 26.027 5.93673 26.1084L11.6739 27.5264C12.0087 27.6082 12.2127 27.9468 12.1299 28.2813ZM5.16346 16.5733C5.16346 16.381 5.25176 16.2003 5.40243 16.082C5.55359 15.9636 5.74965 15.9222 5.93623 15.9676L11.6734 17.3846C11.9518 17.4535 12.1474 17.7036 12.1474 17.9902V25.0115C12.1474 25.2032 12.0591 25.3845 11.9084 25.5028C11.7976 25.5892 11.6614 25.6356 11.5237 25.6356C11.4739 25.6356 11.424 25.6296 11.3741 25.6176L5.6369 24.1997C5.35852 24.1313 5.16246 23.8817 5.16246 23.5941V16.5733H5.16346Z" fill="#1565C0"/>
<path d="M26.4075 8.27979V38.6317C31.8837 36.7924 37.5805 35.3505 43.7128 34.6994V4.3465C37.3585 5.00055 31.7041 6.43846 26.4075 8.27979ZM28.6071 11.1127L41.7372 8.03964C42.068 7.95925 42.4077 8.16895 42.486 8.50546C42.5644 8.84097 42.3563 9.17698 42.0206 9.25487L28.8909 12.3279C28.843 12.3389 28.7956 12.3444 28.7482 12.3444C28.4654 12.3444 28.2089 12.1502 28.1416 11.8626C28.0633 11.5271 28.2713 11.1911 28.6071 11.1127ZM37.1026 13.5591L36.4435 13.7134C36.3961 13.7244 36.3488 13.7299 36.3014 13.7299C36.0185 13.7299 35.7621 13.5357 35.6947 13.2481C35.6164 12.9121 35.8249 12.5765 36.1602 12.4982L36.8187 12.3439C37.151 12.2635 37.4897 12.4732 37.568 12.8092C37.6464 13.1452 37.4378 13.4812 37.1026 13.5591ZM34.4665 14.1762L33.8079 14.3305C33.76 14.3415 33.7126 14.347 33.6658 14.347C33.3824 14.347 33.126 14.1528 33.0586 13.8652C32.9803 13.5292 33.1888 13.1937 33.5241 13.1153L34.1831 12.961C34.5144 12.8806 34.8536 13.0903 34.9319 13.4263C35.0102 13.7623 34.8017 14.0978 34.4665 14.1762ZM31.8309 14.7933L31.1723 14.9476C31.1239 14.9586 31.077 14.9641 31.0296 14.9641C30.7468 14.9641 30.4903 14.7699 30.423 14.4818C30.3442 14.1463 30.5527 13.8103 30.8885 13.7324L31.5475 13.5781C31.8822 13.4992 32.218 13.7079 32.2963 14.0439C32.3746 14.3799 32.1656 14.7149 31.8309 14.7933ZM29.1942 15.4104L28.8909 15.4813C28.843 15.4923 28.7951 15.4978 28.7482 15.4978C28.4654 15.4978 28.2089 15.3031 28.1416 15.0155C28.0633 14.6795 28.2718 14.344 28.6071 14.2661L28.9109 14.1952C29.2471 14.1158 29.5819 14.3255 29.6597 14.661C29.7385 14.9965 29.53 15.332 29.1942 15.4104ZM37.5615 16.6052L28.8909 18.6348C28.843 18.6462 28.7956 18.6512 28.7482 18.6512C28.4654 18.6512 28.2089 18.4575 28.1416 18.1694C28.0633 17.8339 28.2713 17.4979 28.6071 17.42L37.2777 15.3905C37.6089 15.3106 37.9487 15.5198 38.027 15.8563C38.1053 16.1908 37.8973 16.5268 37.5615 16.6052ZM39.7382 12.9425L39.0792 13.0968C39.0313 13.1078 38.9844 13.1133 38.937 13.1133C38.6541 13.1133 38.3977 12.9191 38.3303 12.6315C38.252 12.296 38.4605 11.9599 38.7958 11.8816L39.4543 11.7273C39.7896 11.6479 40.1253 11.8571 40.2036 12.1931C40.2825 12.5281 40.0739 12.8641 39.7382 12.9425ZM42.0216 12.4083L41.7178 12.4797C41.6694 12.4907 41.622 12.4962 41.5746 12.4962C41.2917 12.4962 41.0353 12.3024 40.9679 12.0149C40.8896 11.6789 41.0971 11.3433 41.4324 11.2645L41.7362 11.1931C42.0715 11.1142 42.4077 11.3224 42.486 11.6579C42.5644 11.9939 42.3568 12.3294 42.0216 12.4083Z" fill="#1565C0"/>
</svg>
