<svg width="196" height="40" viewBox="0 0 196 40" fill="none" xmlns="http://www.w3.org/2000/svg">
<path d="M10.9011 18.4795L6.41064 17.3701V23.1053L10.9011 24.2142V18.4795Z" fill="#1565C0"/>
<path d="M13.7328 0.0402603C12.7665 0.181555 10.7949 0.425201 9.82556 0.564499C13.6949 2.3519 17.7109 4.33203 20.1939 6.58276C18.5655 4.24416 16.6852 1.98194 13.7328 0.0402603Z" fill="#1565C0"/>
<path d="M18.6289 8.27979V38.6083C21.0191 40.6623 23.2336 40.2544 25.3614 38.6083V8.27979C23.2451 9.40815 21.0131 9.53097 18.6289 8.27979Z" fill="#1565C0"/>
<path d="M37.3296 1.09521C32.4046 2.29497 28.8814 4.4838 25.7415 6.94173C29.7784 4.76339 35.1579 3.33696 40.1488 2.51465C39.5237 2.10125 37.9547 1.50762 37.3296 1.09521Z" fill="#1565C0"/>
<path d="M30.5338 0.0402507C27.5814 1.98193 25.7006 4.24415 24.0687 6.58275C26.5547 4.33202 30.1711 1.73479 34.5363 0.0402507C33.574 -0.0995464 31.4971 0.181046 30.5338 0.0402507Z" fill="#1565C0"/>
<path d="M3.82349 2.74881C8.81483 3.57112 14.4857 4.76339 18.5246 6.94173C15.3856 4.4838 11.8615 2.29497 6.93653 1.09521C6.30793 1.50762 4.44959 2.33491 3.82349 2.74881Z" fill="#1565C0"/>
<path d="M0 34.6994C6.13529 35.3505 11.8326 36.7924 17.3078 38.6317V8.2798C12.0117 6.43847 6.3548 5.00106 0 4.34701V34.6994ZM12.1299 28.2813C12.0596 28.5658 11.8056 28.7561 11.5252 28.7561C11.4754 28.7561 11.4255 28.7501 11.3751 28.7381L5.6379 27.3202C5.30365 27.2378 5.0996 26.8998 5.18192 26.5648C5.26424 26.2302 5.60448 26.027 5.93673 26.1084L11.6739 27.5264C12.0087 27.6082 12.2127 27.9467 12.1299 28.2813ZM5.16346 16.5733C5.16346 16.381 5.25176 16.2003 5.40243 16.082C5.55359 15.9636 5.74965 15.9222 5.93623 15.9676L11.6734 17.3846C11.9518 17.4535 12.1474 17.7036 12.1474 17.9902V25.0115C12.1474 25.2032 12.0591 25.3845 11.9084 25.5028C11.7976 25.5892 11.6614 25.6356 11.5237 25.6356C11.4739 25.6356 11.424 25.6296 11.3741 25.6176L5.6369 24.1997C5.35852 24.1313 5.16246 23.8816 5.16246 23.5941V16.5733H5.16346Z" fill="#1565C0"/>
<path d="M26.4075 8.27979V38.6317C31.8837 36.7924 37.5805 35.3505 43.7128 34.6994V4.3465C37.3585 5.00055 31.7041 6.43846 26.4075 8.27979ZM28.6071 11.1127L41.7372 8.03964C42.068 7.95925 42.4077 8.16895 42.486 8.50546C42.5644 8.84097 42.3563 9.17698 42.0206 9.25487L28.8909 12.3279C28.843 12.3389 28.7956 12.3444 28.7482 12.3444C28.4654 12.3444 28.2089 12.1502 28.1416 11.8626C28.0633 11.5271 28.2713 11.1911 28.6071 11.1127ZM37.1026 13.5591L36.4435 13.7134C36.3961 13.7244 36.3488 13.7299 36.3014 13.7299C36.0185 13.7299 35.7621 13.5357 35.6947 13.2481C35.6164 12.9121 35.8249 12.5765 36.1602 12.4982L36.8187 12.3439C37.151 12.2635 37.4897 12.4732 37.568 12.8092C37.6464 13.1452 37.4378 13.4812 37.1026 13.5591ZM34.4665 14.1762L33.8079 14.3305C33.76 14.3415 33.7126 14.347 33.6658 14.347C33.3824 14.347 33.126 14.1528 33.0586 13.8652C32.9803 13.5292 33.1888 13.1937 33.5241 13.1153L34.1831 12.961C34.5144 12.8806 34.8536 13.0903 34.9319 13.4263C35.0102 13.7623 34.8017 14.0978 34.4665 14.1762ZM31.8309 14.7933L31.1723 14.9476C31.1239 14.9586 31.077 14.9641 31.0296 14.9641C30.7468 14.9641 30.4903 14.7699 30.423 14.4818C30.3442 14.1463 30.5527 13.8103 30.8885 13.7324L31.5475 13.5781C31.8822 13.4992 32.218 13.7079 32.2963 14.0439C32.3746 14.3799 32.1656 14.7149 31.8309 14.7933ZM29.1942 15.4104L28.8909 15.4813C28.843 15.4923 28.7951 15.4978 28.7482 15.4978C28.4654 15.4978 28.2089 15.3031 28.1416 15.0155C28.0633 14.6795 28.2718 14.344 28.6071 14.2661L28.9109 14.1952C29.2471 14.1158 29.5819 14.3255 29.6597 14.661C29.7385 14.9965 29.53 15.332 29.1942 15.4104ZM37.5615 16.6052L28.8909 18.6348C28.843 18.6462 28.7956 18.6512 28.7482 18.6512C28.4654 18.6512 28.2089 18.4575 28.1416 18.1694C28.0633 17.8339 28.2713 17.4979 28.6071 17.42L37.2777 15.3905C37.6089 15.3106 37.9487 15.5198 38.027 15.8563C38.1053 16.1908 37.8973 16.5268 37.5615 16.6052ZM39.7382 12.9425L39.0792 13.0968C39.0313 13.1078 38.9844 13.1133 38.937 13.1133C38.6541 13.1133 38.3977 12.9191 38.3303 12.6315C38.252 12.296 38.4605 11.9599 38.7958 11.8816L39.4543 11.7273C39.7896 11.6479 40.1253 11.8571 40.2036 12.1931C40.2825 12.5281 40.0739 12.8641 39.7382 12.9425ZM42.0216 12.4083L41.7178 12.4797C41.6694 12.4907 41.622 12.4962 41.5746 12.4962C41.2917 12.4962 41.0353 12.3024 40.9679 12.0149C40.8896 11.6789 41.0971 11.3433 41.4324 11.2645L41.7362 11.1931C42.0715 11.1142 42.4077 11.3224 42.486 11.6579C42.5644 11.9939 42.3568 12.3294 42.0216 12.4083Z" fill="#1565C0"/>
<path d="M60.7048 29V12.2H63.9208L73.8328 24.296H72.2728V12.2H76.1128V29H72.9208L62.9848 16.904H64.5448V29H60.7048ZM86.0676 29.192C84.6916 29.192 83.4676 28.904 82.3956 28.328C81.3396 27.752 80.4996 26.968 79.8756 25.976C79.2676 24.968 78.9636 23.824 78.9636 22.544C78.9636 21.248 79.2676 20.104 79.8756 19.112C80.4996 18.104 81.3396 17.32 82.3956 16.76C83.4676 16.184 84.6916 15.896 86.0676 15.896C87.4276 15.896 88.6436 16.184 89.7156 16.76C90.7876 17.32 91.6276 18.096 92.2356 19.088C92.8436 20.08 93.1476 21.232 93.1476 22.544C93.1476 23.824 92.8436 24.968 92.2356 25.976C91.6276 26.968 90.7876 27.752 89.7156 28.328C88.6436 28.904 87.4276 29.192 86.0676 29.192ZM86.0676 26.12C86.6916 26.12 87.2516 25.976 87.7476 25.688C88.2436 25.4 88.6356 24.992 88.9236 24.464C89.2116 23.92 89.3556 23.28 89.3556 22.544C89.3556 21.792 89.2116 21.152 88.9236 20.624C88.6356 20.096 88.2436 19.688 87.7476 19.4C87.2516 19.112 86.6916 18.968 86.0676 18.968C85.4436 18.968 84.8836 19.112 84.3876 19.4C83.8916 19.688 83.4916 20.096 83.1876 20.624C82.8996 21.152 82.7556 21.792 82.7556 22.544C82.7556 23.28 82.8996 23.92 83.1876 24.464C83.4916 24.992 83.8916 25.4 84.3876 25.688C84.8836 25.976 85.4436 26.12 86.0676 26.12ZM98.9026 29L93.4786 16.088H97.3426L101.855 27.2H99.9346L104.615 16.088H108.215L102.767 29H98.9026ZM115.899 29.192C114.427 29.192 113.131 28.904 112.011 28.328C110.907 27.752 110.051 26.968 109.443 25.976C108.835 24.968 108.531 23.824 108.531 22.544C108.531 21.248 108.827 20.104 109.419 19.112C110.027 18.104 110.851 17.32 111.891 16.76C112.931 16.184 114.107 15.896 115.419 15.896C116.683 15.896 117.819 16.168 118.827 16.712C119.851 17.24 120.659 18.008 121.251 19.016C121.843 20.008 122.139 21.2 122.139 22.592C122.139 22.736 122.131 22.904 122.115 23.096C122.099 23.272 122.083 23.44 122.067 23.6H111.579V21.416H120.099L118.659 22.064C118.659 21.392 118.523 20.808 118.251 20.312C117.979 19.816 117.603 19.432 117.123 19.16C116.643 18.872 116.083 18.728 115.443 18.728C114.803 18.728 114.235 18.872 113.739 19.16C113.259 19.432 112.883 19.824 112.611 20.336C112.339 20.832 112.203 21.424 112.203 22.112V22.688C112.203 23.392 112.355 24.016 112.659 24.56C112.979 25.088 113.419 25.496 113.979 25.784C114.555 26.056 115.227 26.192 115.995 26.192C116.683 26.192 117.283 26.088 117.795 25.88C118.323 25.672 118.803 25.36 119.235 24.944L121.227 27.104C120.635 27.776 119.891 28.296 118.995 28.664C118.099 29.016 117.067 29.192 115.899 29.192ZM124.731 29V11.192H128.475V29H124.731ZM139.211 29V12.2H142.427L152.339 24.296H150.779V12.2H154.619V29H151.427L141.491 16.904H143.051V29H139.211ZM164.838 29.192C163.366 29.192 162.07 28.904 160.95 28.328C159.846 27.752 158.99 26.968 158.382 25.976C157.774 24.968 157.47 23.824 157.47 22.544C157.47 21.248 157.766 20.104 158.358 19.112C158.966 18.104 159.79 17.32 160.83 16.76C161.87 16.184 163.046 15.896 164.358 15.896C165.622 15.896 166.758 16.168 167.766 16.712C168.79 17.24 169.598 18.008 170.19 19.016C170.782 20.008 171.078 21.2 171.078 22.592C171.078 22.736 171.07 22.904 171.054 23.096C171.038 23.272 171.022 23.44 171.006 23.6H160.518V21.416H169.038L167.598 22.064C167.598 21.392 167.462 20.808 167.19 20.312C166.918 19.816 166.542 19.432 166.062 19.16C165.582 18.872 165.022 18.728 164.382 18.728C163.742 18.728 163.174 18.872 162.678 19.16C162.198 19.432 161.822 19.824 161.55 20.336C161.278 20.832 161.142 21.424 161.142 22.112V22.688C161.142 23.392 161.294 24.016 161.598 24.56C161.918 25.088 162.358 25.496 162.918 25.784C163.494 26.056 164.166 26.192 164.934 26.192C165.622 26.192 166.222 26.088 166.734 25.88C167.262 25.672 167.742 25.36 168.174 24.944L170.166 27.104C169.574 27.776 168.83 28.296 167.934 28.664C167.038 29.016 166.006 29.192 164.838 29.192ZM178.014 29.192C176.91 29.192 175.846 29.064 174.822 28.808C173.814 28.536 173.014 28.2 172.422 27.8L173.67 25.112C174.262 25.48 174.958 25.784 175.758 26.024C176.574 26.248 177.374 26.36 178.158 26.36C179.022 26.36 179.63 26.256 179.982 26.048C180.35 25.84 180.534 25.552 180.534 25.184C180.534 24.88 180.39 24.656 180.102 24.512C179.83 24.352 179.462 24.232 178.998 24.152C178.534 24.072 178.022 23.992 177.462 23.912C176.918 23.832 176.366 23.728 175.806 23.6C175.246 23.456 174.734 23.248 174.27 22.976C173.806 22.704 173.43 22.336 173.142 21.872C172.87 21.408 172.734 20.808 172.734 20.072C172.734 19.256 172.966 18.536 173.43 17.912C173.91 17.288 174.598 16.8 175.494 16.448C176.39 16.08 177.462 15.896 178.71 15.896C179.59 15.896 180.486 15.992 181.398 16.184C182.31 16.376 183.07 16.656 183.678 17.024L182.43 19.688C181.806 19.32 181.174 19.072 180.534 18.944C179.91 18.8 179.302 18.728 178.71 18.728C177.878 18.728 177.27 18.84 176.886 19.064C176.502 19.288 176.31 19.576 176.31 19.928C176.31 20.248 176.446 20.488 176.718 20.648C177.006 20.808 177.382 20.936 177.846 21.032C178.31 21.128 178.814 21.216 179.358 21.296C179.918 21.36 180.478 21.464 181.038 21.608C181.598 21.752 182.102 21.96 182.55 22.232C183.014 22.488 183.39 22.848 183.678 23.312C183.966 23.76 184.11 24.352 184.11 25.088C184.11 25.888 183.87 26.6 183.39 27.224C182.91 27.832 182.214 28.312 181.302 28.664C180.406 29.016 179.31 29.192 178.014 29.192ZM191.8 29.192C190.28 29.192 189.096 28.808 188.248 28.04C187.4 27.256 186.976 26.096 186.976 24.56V13.232H190.72V24.512C190.72 25.056 190.864 25.48 191.152 25.784C191.44 26.072 191.832 26.216 192.328 26.216C192.92 26.216 193.424 26.056 193.84 25.736L194.848 28.376C194.464 28.648 194 28.856 193.456 29C192.928 29.128 192.376 29.192 191.8 29.192ZM184.984 19.256V16.376H193.936V19.256H184.984Z" fill="#1569A9"/>
</svg>
